<svg width="1200" height="760" viewBox="0 0 1200 760" fill="none" xmlns="http://www.w3.org/2000/svg">
  <rect width="1200" height="760" fill="#F7F1EC"/>
  <rect x="112" y="96" width="976" height="568" rx="26" fill="#FFFEFC" stroke="#D9CDBF" stroke-width="3"/>
  <rect x="164" y="150" width="264" height="180" rx="20" fill="#F2E7DA"/>
  <rect x="452" y="150" width="264" height="180" rx="20" fill="#F7F0E7"/>
  <rect x="740" y="150" width="296" height="180" rx="20" fill="#EDE4F2"/>
  <rect x="164" y="354" width="396" height="258" rx="20" fill="#F7F0E7"/>
  <rect x="584" y="354" width="452" height="258" rx="20" fill="#F2E7DA"/>
  <circle cx="244" cy="228" r="30" fill="#8B7355" opacity="0.18"/>
  <circle cx="532" cy="228" r="30" fill="#8B7355" opacity="0.18"/>
  <circle cx="820" cy="228" r="30" fill="#7A6B8A" opacity="0.2"/>
  <circle cx="284" cy="484" r="34" fill="#8B7355" opacity="0.18"/>
  <circle cx="704" cy="484" r="34" fill="#8B7355" opacity="0.18"/>
  <path d="M222 258H338" stroke="#CDBEA9" stroke-width="8" stroke-linecap="round"/>
  <path d="M510 258H626" stroke="#D3C9BB" stroke-width="8" stroke-linecap="round"/>
  <path d="M798 258H938" stroke="#C7BCD9" stroke-width="8" stroke-linecap="round"/>
  <path d="M222 514H460" stroke="#D3C9BB" stroke-width="8" stroke-linecap="round"/>
  <path d="M642 514H934" stroke="#CDBEA9" stroke-width="8" stroke-linecap="round"/>
  <path d="M222 552H400" stroke="#DDD3C6" stroke-width="6" stroke-linecap="round"/>
  <path d="M642 552H852" stroke="#DDD3C6" stroke-width="6" stroke-linecap="round"/>
</svg>