<svg width="1200" height="760" viewBox="0 0 1200 760" fill="none" xmlns="http://www.w3.org/2000/svg">
  <rect width="1200" height="760" fill="#F2F5F0"/>
  <rect x="120" y="186" width="960" height="356" rx="28" fill="#FFFEFC" stroke="#CFD7CB" stroke-width="3"/>
  <path d="M220 364H980" stroke="#B7C6AE" stroke-width="10" stroke-linecap="round"/>
  <circle cx="240" cy="364" r="42" fill="#6B7A5E"/>
  <circle cx="420" cy="364" r="42" fill="#8DA17E"/>
  <circle cx="600" cy="364" r="42" fill="#6B7A5E"/>
  <circle cx="780" cy="364" r="42" fill="#8DA17E"/>
  <circle cx="960" cy="364" r="42" fill="#6B7A5E"/>
  <rect x="170" y="240" width="140" height="58" rx="14" fill="#EEF3EA"/>
  <rect x="350" y="440" width="140" height="58" rx="14" fill="#EEF3EA"/>
  <rect x="530" y="240" width="140" height="58" rx="14" fill="#EEF3EA"/>
  <rect x="710" y="440" width="140" height="58" rx="14" fill="#EEF3EA"/>
  <rect x="890" y="240" width="140" height="58" rx="14" fill="#EEF3EA"/>
  <path d="M204 268H276" stroke="#A0B093" stroke-width="7" stroke-linecap="round"/>
  <path d="M384 468H456" stroke="#A0B093" stroke-width="7" stroke-linecap="round"/>
  <path d="M564 268H636" stroke="#A0B093" stroke-width="7" stroke-linecap="round"/>
  <path d="M744 468H816" stroke="#A0B093" stroke-width="7" stroke-linecap="round"/>
  <path d="M924 268H996" stroke="#A0B093" stroke-width="7" stroke-linecap="round"/>
  <path d="M196 364L222 390L282 330" stroke="#FFF" stroke-width="8" stroke-linecap="round" stroke-linejoin="round"/>
  <path d="M556 364L582 390L642 330" stroke="#FFF" stroke-width="8" stroke-linecap="round" stroke-linejoin="round"/>
  <path d="M916 364L942 390L1002 330" stroke="#FFF" stroke-width="8" stroke-linecap="round" stroke-linejoin="round"/>
</svg>