<svg xmlns="http://www.w3.org/2000/svg" viewBox="50 0 830 305" role="img" aria-labelledby="title desc">
  <title id="title">星火者当代骨力主标小尺寸版</title>
  <desc id="desc">星火者当代骨力字标。火字中轴向上延伸，以唯一朱砂笔画形成行动记忆点。</desc>
  <g fill="#111111">
    <path d="M136.49642 96.53599999999997H263.93162V117.10799999999998H136.49642ZM136.49642 57.615999999999985H263.93162V77.35399999999998H136.49642ZM214.0195 252.494V226.918H288.09121V206.624H214.0195V184.66199999999998H299.50728000000004V162.978H214.0195V142.962H188.53246000000001V162.978H142.07171C145.52308 156.584 149.23994 150.19 152.16033 143.796L131.45211 137.402H289.41866000000005V37.321999999999974H112.33682999999999V137.402H127.46976000000001C117.38114 160.476 99.8588 182.994 81.00901 197.728C87.11528 201.064 97.2039 209.126 101.98272 213.574C110.4784 205.79 119.23957 195.78199999999998 127.73525000000001 184.66199999999998H188.53246000000001V206.624H117.38114V226.918H188.53246000000001V252.494H85.78783V274.734H316.23315V252.494Z"/>
    <path d="M550.0672500000001 79.80199999999999C542.6099 104.54399999999998 529.2381 137.62599999999998 518.18065 158.19799999999998L538.75265 167.64999999999998C550.3244000000001 148.19 564.46765 117.05399999999997 576.0394000000001 90.64399999999998ZM392.9486 79.80199999999999C387.29130000000004 106.76799999999997 376.74815 137.07 361.31915000000004 156.52999999999997L384.97695 168.762C400.40595 148.74599999999998 410.4348 115.66399999999999 416.34925000000004 87.58599999999998ZM455.43605 27.537999999999982C454.92175000000003 124.28199999999998 459.03615 216.022 353.09035 258.556C359.51910000000004 263.838 366.71930000000003 273.568 369.80510000000004 280.24C425.09235 256.888 453.12170000000003 219.636 467.26495 175.156C486.80835 227.142 518.4378 261.614 571.9250000000001 278.016C575.26795 270.788 582.46815 259.668 587.8683000000001 254.108C525.1237000000001 238.262 491.95135000000005 194.61599999999999 477.03665 130.676C481.66535000000005 97.87199999999999 481.9225 62.565999999999974 482.17965000000004 27.537999999999982Z"/>
    <path d="M731.4096000000001 112.93799999999999V81.80199999999999H783.9905200000001C772.9914500000001 92.64399999999998 761.4558400000001 103.208 748.84715 112.93799999999999ZM797.9405600000001 206.624H696.8027700000001V183.55H797.9405600000001ZM696.8027700000001 251.382V226.918H797.9405600000001V251.382ZM855.6186100000001 136.012V112.93799999999999H785.3318700000001C807.5982800000002 92.922 827.7185300000001 71.23799999999997 844.6195400000001 47.329999999999984L823.15794 35.65399999999997C814.5733000000001 48.16399999999999 804.6473100000001 60.117999999999995 793.9165100000001 71.51599999999999V59.28399999999999H731.4096000000001V26.75799999999998H706.7287600000001V59.28399999999999H641.2708800000001V81.80199999999999H706.7287600000001V112.93799999999999H617.9313900000001V136.012H716.1182100000001C683.9258100000001 157.14 648.2459000000001 174.37599999999998 611.2246400000001 187.164C615.7852300000001 192.446 623.5650600000001 202.732 626.5160300000001 208.57C641.8074200000001 202.454 657.0988100000001 195.78199999999998 672.1219300000001 188.55399999999997V281.962H696.8027700000001V273.344H797.9405600000001V280.85H823.6944800000001V162.144H719.6057200000001C732.4826800000001 153.80399999999997 745.0913700000001 145.464 757.1635200000001 136.012Z"/>
  </g>
  <path d="M456.00 14.00 L481.00 10.00 V33.00 H456.00 Z" fill="#9E2B25"/>
</svg>
